<svg id="Layer_1" enable-background="new 0 0 512 512" height="512" viewBox="0 0 512 512" width="512" xmlns="http://www.w3.org/2000/svg"><g><path d="m154.63 310.39c0 4.95 2.44 9.58 6.52 12.37l79.85 54.7v-108.56l-86.37-59.17z"/><path d="m264.83 130.1c-5.11-3.53-11.87-3.54-16.99-.03l-78.21 53.57 86.37 59.17 86.41-59.19z"/><path d="m271 377.46 79.85-54.7c4.08-2.79 6.52-7.42 6.52-12.37v-100.65l-86.37 59.16z"/><path d="m497 241h-29.682c-7.372-104.883-91.435-188.946-196.318-196.317v-29.683c0-8.284-6.716-15-15-15s-15 6.716-15 15v29.683c-104.883 7.371-188.946 91.434-196.318 196.317h-29.682c-8.284 0-15 6.716-15 15s6.716 15 15 15h29.682c7.372 104.883 91.435 188.946 196.318 196.317v29.683c0 8.284 6.716 15 15 15s15-6.716 15-15v-29.683c104.883-7.371 188.946-91.434 196.318-196.317h29.682c8.284 0 15-6.716 15-15s-6.716-15-15-15zm-241 196.843c-100.269 0-181.843-81.574-181.843-181.843s81.574-181.843 181.843-181.843 181.843 81.574 181.843 181.843-81.574 181.843-181.843 181.843z"/></g></svg>