<svg height="512" viewBox="0 0 60 60" width="512" xmlns="http://www.w3.org/2000/svg"><g id="Page-1" fill="none" fill-rule="evenodd"><g id="009---Pencil" fill="rgb(0,0,0)" fill-rule="nonzero"><path id="Shape" d="m47.222 1.464c-1.9547793-1.94828543-5.1172207-1.94828543-7.072 0l-2.486 2.488c-.7910932-.75696271-2.0379068-.75696271-2.829 0l-3.513 3.512c-.375248.37509602-.5860729.88392663-.5860729 1.4145s.2108249 1.03940398.5860729 1.4145l-26.908 26.907-.487.487c-.7537191.7503106-1.24687914 1.7226105-1.407 2.774l-2.475 16.028c-.15071287.8718808.09114613 1.7658265.66090042 2.4427833s1.40928868 1.0678747 2.29409958 1.0682167c.16593827.0001299.33156976-.0142583.495-.043l16.043-2.477c1.0509763-.1598451 2.0229429-.6526634 2.773-1.406l.486-.487 26.91-26.91c.7809997.7807639 2.0470003.7807639 2.828 0l3.514-3.513c.375248-.375096.5860729-.8839266.5860729-1.4145s-.2108249-1.039404-.5860729-1.4145l2.486-2.487c1.9525763-1.9526137 1.9525763-5.1183863 0-7.071zm-14.485 10.243 4.246 4.246-24.783 24.782c-.3251125-2.1939403-2.0418532-3.9200067-4.234-4.257zm-14.878 34.669c-.3311178-2.1875428-2.0483791-3.9043987-4.236-4.235l24.777-24.774 4.233 4.233zm-14.688 11.609c-.32329334.055683-.65333752-.0507433-.88320189-.2847979-.22986436-.2340546-.33031167-.5659673-.26879811-.8882021l.681-4.433c1.18520301.3028582 2.2657494.9222885 3.126 1.792.87107224.8608776 1.49155769 1.9424926 1.795 3.129zm16.062-2.485-9.624 1.49c-.37308438-1.6061263-1.19340297-3.0737546-2.366-4.233-1.15921198-1.1726409-2.62685381-1.9929671-4.233-2.366l1.49-9.624c.09431601-.631265.38875704-1.2155902.84-1.667l.366-.365c1.2198302-.5849799 2.67419993-.3557824 3.655.576.9574257 1.0205287 1.1729353 2.531495.539 3.779-.20594307.3870332-.13577323.8630791.1730832 1.1742301.3088564.3111511.7843698.3848426 1.1729168.1817699 1.2462801-.6355962 2.7570717-.4233659 3.78.531.9537783 1.0206046 1.1671864 2.5288487.534 3.774-.2061784.3874047-.1356804.8639667.1738309 1.1750852.3095112.3111185.7857017.3840839 1.1741691.1799148 1.2456658-.6352592 2.7557086-.4230218 3.778.531.9328804.9817541 1.1628392 2.4374968.578 3.659l-.365.364c-.4508089.4515176-1.0349171.7460259-1.666.84zm4.288-3.469c-.3371654-2.1911317-2.06292-3.9067491-4.256-4.231l24.782-24.782 4.245 4.245zm27.6-24.769-18.385-18.384 3.514-3.512.707.707 16.971 16.97.707.707zm6-8.83-2.486 2.487-15.557-15.553 2.486-2.488c1.1730963-1.16917333 3.0709037-1.16917333 4.244 0l11.313 11.314c.562719.5626237.8788593 1.3257625.8788593 2.1215s-.3161403 1.5588763-.8788593 2.1215z"/></g></g></svg>